name rise44.9368peak50.754fall52.0217.mot
datacolumns 19
datarows 27
range 2.51332300000000 2.55666300000000
endheader
time	ground_force1_vx	ground_force1_vy	ground_force1_vz	ground_force1_px	ground_force1_py	ground_force1_pz	ground_force2_vx	ground_force2_vy	ground_force2_vz	ground_force2_px	ground_force2_py	ground_force2_pz	ground_torque1_x	ground_torque1_y	ground_torque1_z	ground_torque2_x	ground_torque2_y	ground_torque2_z	
2.51332300000000	-46.49173900000000	831.34414000000004	69.39920700000000	0.17677600000000	0.00000000000000	0.10831000000000	0.00000000000000	0.00000000000000	0.00000000000000	0.00000000000000	0.00000000000000	0.00000000000000	0.00000000000000	32.48710900000000	0.00000000000000	0.00000000000000	0.00000000000000	0.00000000000000	
2.51499100000000	-47.02626500000000	830.69897600000002	69.56483799999999	0.17576900000000	0.00000000000000	0.10823000000000	-0.97269300000000	3.31521000000000	0.85362300000000	0.00000000000000	0.00000000000000	0.00000000000000	0.00000000000000	32.46487500000000	0.00000000000000	0.00000000000000	0.33650100000000	0.00000000000000	
2.51666400000000	-47.57117900000000	829.90906600000005	69.70238400000000	0.17476700000000	0.00000000000000	0.10814600000000	-1.55455200000000	6.61767600000000	1.44661600000000	0.00000000000000	0.00000000000000	0.00000000000000	0.00000000000000	32.43638600000000	0.00000000000000	0.00000000000000	0.57647400000000	0.00000000000000	
2.51832900000000	-48.12669600000000	828.97168199999999	69.81079099999999	0.17376900000000	0.00000000000000	0.10805700000000	-2.21111900000000	10.63913400000000	2.13402500000000	0.00000000000000	0.00000000000000	0.00000000000000	0.00000000000000	32.40160200000000	0.00000000000000	0.00000000000000	0.85601300000000	0.00000000000000	
2.51999600000000	-48.69299000000000	827.88417100000004	69.88904800000000	0.17277700000000	0.00000000000000	0.10796400000000	-2.92166200000000	15.34553800000000	2.89986300000000	0.00000000000000	0.00000000000000	0.00000000000000	0.00000000000000	32.36049500000000	0.00000000000000	0.00000000000000	1.16908200000000	0.00000000000000	
2.52166400000000	-49.27019600000000	826.64395600000000	69.93619700000001	0.17179100000000	0.00000000000000	0.10786600000000	-3.66031200000000	20.67207500000000	3.72278000000000	0.00000000000000	0.00000000000000	0.00000000000000	0.00000000000000	32.31304000000000	0.00000000000000	0.00000000000000	1.50748700000000	0.00000000000000	
2.52332300000000	-49.85840000000000	825.24853900000005	69.95132900000000	0.17081200000000	0.00000000000000	0.10776400000000	-4.39769400000000	26.52815000000000	4.57746300000000	0.36521400000000	0.00000000000000	-0.09165200000000	0.00000000000000	32.25922300000000	0.00000000000000	0.00000000000000	3.13012600000000	0.00000000000000	
2.52499500000000	-50.45764300000000	823.69549600000005	69.93359100000001	0.16983900000000	0.00000000000000	0.10765600000000	-5.10298900000000	32.80512400000000	5.43649000000000	0.37019400000000	0.00000000000000	-0.09275300000000	0.00000000000000	32.19903600000000	0.00000000000000	0.00000000000000	3.75947900000000	0.00000000000000	
2.52665900000000	-51.06791400000000	821.98248000000001	69.88218700000000	0.16887500000000	0.00000000000000	0.10754300000000	-5.74617800000000	39.38575900000000	6.27240500000000	0.37482000000000	0.00000000000000	-0.09372400000000	0.00000000000000	32.13247800000000	0.00000000000000	0.00000000000000	4.38567200000000	0.00000000000000	
2.52832900000000	-51.68914800000000	820.10722199999998	69.79638300000001	0.16791800000000	0.00000000000000	0.10742600000000	-6.30013900000000	46.15402800000000	7.05972500000000	0.37914700000000	0.00000000000000	-0.09458800000000	0.00000000000000	32.05955200000000	0.00000000000000	0.00000000000000	4.99110300000000	0.00000000000000	
2.52999200000000	-52.32122100000000	818.06752900000004	69.67550600000000	0.16697100000000	0.00000000000000	0.10730300000000	-6.74235300000000	53.00397900000000	7.77663500000000	0.38321600000000	0.00000000000000	-0.09536500000000	0.00000000000000	31.98026800000000	0.00000000000000	0.00000000000000	5.56030300000000	0.00000000000000	
2.53166500000000	-52.96395300000000	815.86128699999995	69.51894700000000	0.16603200000000	0.00000000000000	0.10717400000000	-7.05605000000000	59.84668700000000	8.40617700000000	0.38706100000000	0.00000000000000	-0.09606900000000	0.00000000000000	31.89463900000000	0.00000000000000	0.00000000000000	6.08084500000000	0.00000000000000	
2.53333200000000	-53.61709800000000	813.48645799999997	69.32616700000000	0.16510300000000	0.00000000000000	0.10704000000000	-7.23072900000000	66.61482599999999	8.93688400000000	0.39070900000000	0.00000000000000	-0.09671000000000	0.00000000000000	31.80268100000000	0.00000000000000	0.00000000000000	6.54388300000000	0.00000000000000	
2.53499200000000	-54.28034600000000	810.94108900000003	69.09669200000000	0.16418400000000	0.00000000000000	0.10690100000000	-7.26209200000000	73.26473799999999	9.36287100000000	0.39418200000000	0.00000000000000	-0.09729900000000	0.00000000000000	31.70441200000000	0.00000000000000	0.00000000000000	6.94432400000000	0.00000000000000	
2.53666300000000	-54.95332000000000	808.22330499999998	68.83012200000000	0.16327500000000	0.00000000000000	0.10675600000000	-7.15149300000000	79.77622000000000	9.68345200000000	0.39749700000000	0.00000000000000	-0.09784300000000	0.00000000000000	31.59985300000000	0.00000000000000	0.00000000000000	7.28065300000000	0.00000000000000	
2.53832400000000	-55.63557200000000	805.33131300000002	68.52612900000000	0.16237700000000	0.00000000000000	0.10660500000000	-6.90500500000000	86.15040999999999	9.90239600000000	0.40067000000000	0.00000000000000	-0.09834800000000	0.00000000000000	31.48902600000000	0.00000000000000	0.00000000000000	7.55450600000000	0.00000000000000	
2.53999400000000	-56.32658200000000	802.26340900000002	68.18445500000000	0.16149000000000	0.00000000000000	0.10644900000000	-6.53228200000000	92.40629100000000	10.02694700000000	0.40371400000000	0.00000000000000	-0.09881900000000	0.00000000000000	31.37195300000000	0.00000000000000	0.00000000000000	7.77004600000000	0.00000000000000	
2.54167600000000	-57.02575700000000	799.01797199999999	67.80492300000000	0.16061500000000	0.00000000000000	0.10628600000000	-6.04531000000000	98.57633199999999	10.06672800000000	0.40663900000000	0.00000000000000	-0.09926200000000	0.00000000000000	31.24865600000000	0.00000000000000	0.00000000000000	7.93323900000000	0.00000000000000	
2.54332700000000	-57.73242600000000	795.59347300000002	67.38742700000000	0.15975100000000	0.00000000000000	0.10611800000000	-5.45719800000000	104.70178100000000	10.03264300000000	0.40945500000000	0.00000000000000	-0.09967800000000	0.00000000000000	31.11915400000000	0.00000000000000	0.00000000000000	8.05110700000000	0.00000000000000	
2.54499700000000	-58.44584300000000	791.98847599999999	66.93194200000001	0.15890000000000	0.00000000000000	0.10594500000000	-4.78108200000000	110.82805700000000	9.93586500000000	0.41216900000000	0.00000000000000	-0.10007200000000	0.00000000000000	30.98346600000000	0.00000000000000	0.00000000000000	8.13102100000000	0.00000000000000	
2.54666500000000	-59.16518200000000	788.20163800000000	66.43852000000000	0.15806100000000	0.00000000000000	0.10576500000000	-4.02922500000000	117.00058900000001	9.78697300000000	0.41478700000000	0.00000000000000	-0.10044600000000	0.00000000000000	30.84160900000000	0.00000000000000	0.00000000000000	8.18007900000000	0.00000000000000	
2.54832600000000	-59.88953700000000	784.23171500000001	65.90729000000000	0.15723500000000	0.00000000000000	0.10557900000000	-3.21233500000000	123.26134999999999	9.59528900000000	0.41731700000000	0.00000000000000	-0.10080300000000	0.00000000000000	30.69359600000000	0.00000000000000	0.00000000000000	8.20462200000000	0.00000000000000	
2.54999900000000	-60.61792200000000	780.07756600000005	65.33846300000000	0.15642100000000	0.00000000000000	0.10538800000000	-2.33912900000000	129.64623300000000	9.36842500000000	0.41976200000000	0.00000000000000	-0.10114300000000	0.00000000000000	30.53943600000000	0.00000000000000	0.00000000000000	8.20987300000000	0.00000000000000	
2.55167400000000	-61.34927000000000	775.73815500000001	64.73232700000000	0.15562100000000	0.00000000000000	0.10519100000000	-1.41612400000000	136.18332899999999	9.11203300000000	0.42212700000000	0.00000000000000	-0.10146900000000	0.00000000000000	30.37913500000000	0.00000000000000	0.00000000000000	8.19974200000000	0.00000000000000	
2.55332900000000	-62.08243400000000	771.21255799999994	64.08925100000000	0.15483400000000	0.00000000000000	0.10498800000000	-0.44764000000000	142.89205600000000	8.82975700000000	0.42441600000000	0.00000000000000	-0.10178300000000	0.00000000000000	30.21269500000000	0.00000000000000	0.00000000000000	8.17674500000000	0.00000000000000	
2.55499200000000	-62.81618400000000	766.49996499999997	63.40968300000000	0.15406000000000	0.00000000000000	0.10477900000000	0.56403600000000	149.78307300000000	8.52334100000000	0.42663300000000	0.00000000000000	-0.10208500000000	0.00000000000000	30.04011300000000	0.00000000000000	0.00000000000000	8.14206000000000	0.00000000000000	
2.55666300000000	-63.54921200000000	761.59968800000001	62.69415000000000	0.15330000000000	0.00000000000000	0.10456500000000	1.61835500000000	156.85882899999999	8.19285500000000	0.42878000000000	0.00000000000000	-0.10237700000000	0.00000000000000	29.86138100000000	0.00000000000000	0.00000000000000	8.09566100000000	0.00000000000000	
